<?xml version="1.0" standalone="no"?><!DOCTYPE svg PUBLIC "-//W3C//DTD SVG 1.1//EN" "http://www.w3.org/Graphics/SVG/1.1/DTD/svg11.dtd"><svg class="icon" width="200px" height="200.00px" stroke="white" fill="white" viewBox="0 0 1024 1024" version="1.1" xmlns="http://www.w3.org/2000/svg"><path d="M791.809265 903.741056l-55.962569 0L735.846696 707.874109C735.847719 599.665619 648.160611 511.99386 539.980773 511.99386c108.180861 0 195.866946-87.687108 195.866946-195.866946L735.847719 120.258944l55.962569 0c15.46625 0 27.981285-12.515035 27.981285-27.981285 0-15.438621-12.514012-27.981285-27.981285-27.981285L232.188688 64.296375c-15.46625 0-27.981285 12.542664-27.981285 27.981285 0 15.465227 12.515035 27.981285 27.981285 27.981285l55.962569 0 0 195.866946C288.151257 424.305729 375.837342 511.99386 484.018204 511.99386c-108.180861 0-195.866946 87.671759-195.866946 195.880249l0 195.866946-55.962569 0c-15.46625 0-27.981285 12.515035-27.981285 27.981285s12.515035 27.981285 27.981285 27.981285l559.620577 0c15.46625 0 27.981285-12.515035 27.981285-27.981285S807.276539 903.741056 791.809265 903.741056zM344.112804 316.126914c0-49.021483 0-195.866946 0-195.866946l335.772346 0c0 0 0 150.86194 0 195.866946 0 77.275991-65.770959 139.9054-146.900721 139.9054l-41.971927 0C409.884786 456.031291 344.112804 393.401882 344.112804 316.126914zM679.88515 903.741056 344.112804 903.741056c0 0 0-146.846486 0-195.866946 0-77.275991 65.770959-139.918703 146.900721-139.918703l41.971927 0c81.128739 0 146.900721 62.643736 146.900721 139.918703C679.88515 752.851487 679.88515 903.741056 679.88515 903.741056z" /></svg>